<svg width="2269" height="278" viewBox="0 0 2269 278" fill="none" xmlns="http://www.w3.org/2000/svg">
<path fill-rule="evenodd" clip-rule="evenodd" d="M2269 0L2122.59 11.6098C1973.41 23.2197 1680.59 46.4393 1385 85.7341C1089.41 125.922 796.588 183.078 501 194.688C205.412 206.298 -87.4126 171.468 -383 160.751C-678.588 149.142 -971.413 160.751 -1120.59 166.11L-1267 171.468V309H-1120.59C-971.413 309 -678.588 309 -383 309C-87.4126 309 205.412 309 501 309C796.588 309 1089.41 309 1385 309C1680.59 309 1973.41 309 2122.59 309H2269V0Z" fill="#44B250"/>
</svg>
