<svg width="2269" height="312" viewBox="0 0 2269 312" fill="none" xmlns="http://www.w3.org/2000/svg">
<path fill-rule="evenodd" clip-rule="evenodd" d="M2269 137.2L2193.37 164.64C2117.73 192.08 1966.47 246.96 1815.2 233.24C1663.93 219.52 1512.67 137.2 1361.4 82.32C1210.13 27.44 1058.87 0 907.6 0C756.333 0 605.067 27.44 453.8 75.46C302.533 123.48 151.267 192.08 75.6333 226.38L0 260.68V343H75.6333C151.267 343 302.533 343 453.8 343C605.067 343 756.333 343 907.6 343C1058.87 343 1210.13 343 1361.4 343C1512.67 343 1663.93 343 1815.2 343C1966.47 343 2117.73 343 2193.37 343H2269V137.2Z" fill="#44B250"/>
</svg>
