<svg width="2269" height="312" viewBox="0 0 2269 312" fill="none" xmlns="http://www.w3.org/2000/svg">
<path fill-rule="evenodd" clip-rule="evenodd" d="M2269 0L2175.05 12.8873C2079.33 25.7746 1891.42 51.5491 1701.75 95.1676C1512.08 139.777 1324.17 203.223 1134.5 216.11C944.826 228.997 756.924 190.335 567.25 178.439C377.576 165.552 189.674 178.439 93.9509 184.387L0 190.335V343H93.9509C189.674 343 377.576 343 567.25 343C756.924 343 944.826 343 1134.5 343C1324.17 343 1512.08 343 1701.75 343C1891.42 343 2079.33 343 2175.05 343H2269V0Z" fill="#406D59"/>
</svg>
