<svg width="189" height="25" viewBox="0 0 189 25" fill="none" xmlns="http://www.w3.org/2000/svg">
<path opacity="0.5" d="M41.3777 19H47.0777C51.5577 19 54.5777 16.12 54.5777 12C54.5777 7.88 51.5577 5 47.0777 5H41.3777V19ZM42.8577 17.72V6.28H46.9977C50.7177 6.28 53.1177 8.64 53.1177 12C53.1177 15.36 50.7177 17.72 46.9977 17.72H42.8577ZM61.9011 19.1C64.9811 19.1 67.2411 16.86 67.2411 13.74C67.2411 10.62 64.9811 8.4 61.9011 8.4C58.8211 8.4 56.5411 10.62 56.5411 13.74C56.5411 16.86 58.8211 19.1 61.9011 19.1ZM61.9011 17.84C59.6611 17.84 57.9811 16.2 57.9811 13.74C57.9811 11.28 59.6611 9.64 61.9011 9.64C64.1411 9.64 65.8011 11.28 65.8011 13.74C65.8011 16.2 64.1411 17.84 61.9011 17.84ZM83.9872 8.48L80.6472 17.42L77.2872 8.48H76.0672L72.6872 17.42L69.3872 8.48H68.0272L71.9872 19H73.3272L76.6472 10.38L79.9672 19H81.3072L85.2872 8.48H83.9872ZM92.7853 8.4C90.9653 8.4 89.5453 9.14 88.7853 10.42V8.48H87.4253V19H88.8453V13.48C88.8453 11.08 90.2653 9.68 92.5253 9.68C94.5253 9.68 95.6853 10.82 95.6853 13.04V19H97.1053V12.9C97.1053 9.88 95.3453 8.4 92.7853 8.4ZM100.96 19H102.38V4.16H100.96V19ZM110.632 19.1C113.712 19.1 115.972 16.86 115.972 13.74C115.972 10.62 113.712 8.4 110.632 8.4C107.552 8.4 105.272 10.62 105.272 13.74C105.272 16.86 107.552 19.1 110.632 19.1ZM110.632 17.84C108.392 17.84 106.712 16.2 106.712 13.74C106.712 11.28 108.392 9.64 110.632 9.64C112.872 9.64 114.532 11.28 114.532 13.74C114.532 16.2 112.872 17.84 110.632 17.84ZM122.492 8.4C120.832 8.4 119.272 8.92 118.212 9.82L118.852 10.88C119.712 10.12 120.992 9.64 122.352 9.64C124.312 9.64 125.332 10.62 125.332 12.42V13.06H121.992C118.972 13.06 117.932 14.42 117.932 16.04C117.932 17.86 119.392 19.1 121.772 19.1C123.512 19.1 124.752 18.44 125.392 17.36V19H126.752V12.48C126.752 9.76 125.212 8.4 122.492 8.4ZM121.992 17.98C120.312 17.98 119.332 17.22 119.332 16C119.332 14.92 119.992 14.12 122.032 14.12H125.332V15.84C124.772 17.22 123.592 17.98 121.992 17.98ZM138.828 4.16V10.48C137.948 9.12 136.508 8.4 134.828 8.4C131.828 8.4 129.588 10.56 129.588 13.74C129.588 16.92 131.828 19.1 134.828 19.1C136.568 19.1 138.028 18.34 138.888 16.92V19H140.248V4.16H138.828ZM134.948 17.84C132.708 17.84 131.028 16.2 131.028 13.74C131.028 11.28 132.708 9.64 134.948 9.64C137.168 9.64 138.848 11.28 138.848 13.74C138.848 16.2 137.168 17.84 134.948 17.84ZM160.197 19H161.757L155.357 5H153.897L147.497 19H149.037L150.717 15.26H158.517L160.197 19ZM151.257 14.06L154.617 6.54L157.977 14.06H151.257ZM169.193 8.4C167.453 8.4 165.993 9.16 165.133 10.56V8.48H163.773V22.88H165.193V17.02C166.073 18.38 167.513 19.1 169.193 19.1C172.193 19.1 174.433 16.94 174.433 13.74C174.433 10.56 172.193 8.4 169.193 8.4ZM169.093 17.84C166.853 17.84 165.173 16.2 165.173 13.74C165.173 11.3 166.853 9.64 169.093 9.64C171.313 9.64 173.013 11.3 173.013 13.74C173.013 16.2 171.313 17.84 169.093 17.84ZM182.748 8.4C181.008 8.4 179.548 9.16 178.688 10.56V8.48H177.328V22.88H178.748V17.02C179.628 18.38 181.068 19.1 182.748 19.1C185.748 19.1 187.988 16.94 187.988 13.74C187.988 10.56 185.748 8.4 182.748 8.4ZM182.648 17.84C180.408 17.84 178.728 16.2 178.728 13.74C178.728 11.3 180.408 9.64 182.648 9.64C184.868 9.64 186.568 11.3 186.568 13.74C186.568 16.2 184.868 17.84 182.648 17.84Z" fill="black"/>
<g opacity="0.6" clip-path="url(#clip0_469_222)">
<path d="M3 20H21V22H3V20ZM13 10H20L12 18L4 10H11V2H13V10Z" fill="black"/>
</g>
<defs>
<clipPath id="clip0_469_222">
<rect width="24" height="24" fill="white" transform="translate(0 1)"/>
</clipPath>
</defs>
</svg>
