<svg width="22" height="22" viewBox="0 0 22 22" fill="none" xmlns="http://www.w3.org/2000/svg">
<path d="M17.0409 21.049C15.9778 21.049 14.9583 20.6268 14.2067 19.8751C13.455 19.1234 13.0327 18.1039 13.0327 17.0409C13.0327 15.9778 13.455 14.9583 14.2067 14.2067C14.9583 13.455 15.9778 13.0327 17.0409 13.0327C18.1039 13.0327 19.1234 13.455 19.8751 14.2067C20.6268 14.9583 21.049 15.9778 21.049 17.0409C21.049 18.1039 20.6268 19.1234 19.8751 19.8751C19.1234 20.6268 18.1039 21.049 17.0409 21.049ZM17.0409 18.7587C17.4965 18.7587 17.9334 18.5777 18.2555 18.2555C18.5777 17.9334 18.7587 17.4965 18.7587 17.0409C18.7587 16.5853 18.5777 16.1484 18.2555 15.8262C17.9334 15.5041 17.4965 15.3231 17.0409 15.3231C16.5853 15.3231 16.1484 15.5041 15.8262 15.8262C15.5041 16.1484 15.3231 16.5853 15.3231 17.0409C15.3231 17.4965 15.5041 17.9334 15.8262 18.2555C16.1484 18.5777 16.5853 18.7587 17.0409 18.7587ZM4.44373 8.45191C3.91737 8.45191 3.39616 8.34823 2.90986 8.1468C2.42357 7.94537 1.98171 7.65013 1.60952 7.27794C1.23732 6.90574 0.942081 6.46389 0.740651 5.97759C0.539221 5.4913 0.435547 4.97009 0.435547 4.44373C0.435547 3.91737 0.539221 3.39616 0.740651 2.90986C0.942081 2.42357 1.23732 1.98171 1.60952 1.60952C1.98171 1.23732 2.42357 0.942081 2.90986 0.740651C3.39616 0.539221 3.91737 0.435547 4.44373 0.435547C5.50676 0.435547 6.52626 0.857836 7.27794 1.60952C8.02962 2.3612 8.45191 3.38069 8.45191 4.44373C8.45191 5.50676 8.02962 6.52626 7.27794 7.27794C6.52626 8.02962 5.50676 8.45191 4.44373 8.45191ZM4.44373 6.16152C4.89931 6.16152 5.33624 5.98054 5.65839 5.65839C5.98054 5.33624 6.16152 4.89931 6.16152 4.44373C6.16152 3.98814 5.98054 3.55121 5.65839 3.22906C5.33624 2.90692 4.89931 2.72594 4.44373 2.72594C3.98814 2.72594 3.55121 2.90692 3.22906 3.22906C2.90692 3.55121 2.72594 3.98814 2.72594 4.44373C2.72594 4.89931 2.90692 5.33624 3.22906 5.65839C3.55121 5.98054 3.98814 6.16152 4.44373 6.16152ZM18.84 1.02532L20.4593 2.64463L2.64577 20.4593L1.02647 18.84L18.84 1.02532Z" fill="#44B250"/>
</svg>
