<svg width="134" height="26" viewBox="0 0 134 26" fill="none" xmlns="http://www.w3.org/2000/svg">
<path opacity="0.5" d="M53.0687 6H51.5887L46.7887 13.86L41.9887 6H40.4087L46.0087 15.16V20H47.4687V15.16L53.0687 6ZM58.1726 20.1C61.2526 20.1 63.5126 17.86 63.5126 14.74C63.5126 11.62 61.2526 9.4 58.1726 9.4C55.0926 9.4 52.8126 11.62 52.8126 14.74C52.8126 17.86 55.0926 20.1 58.1726 20.1ZM58.1726 18.84C55.9326 18.84 54.2526 17.2 54.2526 14.74C54.2526 12.28 55.9326 10.64 58.1726 10.64C60.4126 10.64 62.0726 12.28 62.0726 14.74C62.0726 17.2 60.4126 18.84 58.1726 18.84ZM74.4716 9.48V15C74.4716 17.4 73.0916 18.82 70.8916 18.82C68.8916 18.82 67.7316 17.68 67.7316 15.44V9.48H66.3116V15.58C66.3116 18.6 68.0716 20.1 70.7516 20.1C72.4316 20.1 73.7916 19.36 74.5316 18.08V20H75.8916V9.48H74.4716ZM81.2287 11.54V9.48H79.8687V20H81.2887V14.64C81.2887 12.16 82.6287 10.76 84.8287 10.76C84.9287 10.76 85.0487 10.78 85.1687 10.78V9.4C83.2287 9.4 81.8887 10.14 81.2287 11.54ZM99.5104 20.12C101.57 20.12 103.41 19.42 104.65 18.06L103.71 17.12C102.57 18.3 101.17 18.8 99.5704 18.8C96.1904 18.8 93.6504 16.32 93.6504 13C93.6504 9.68 96.1904 7.2 99.5704 7.2C101.17 7.2 102.57 7.7 103.71 8.86L104.65 7.92C103.41 6.56 101.57 5.88 99.5304 5.88C95.3104 5.88 92.1904 8.9 92.1904 13C92.1904 17.1 95.3104 20.12 99.5104 20.12ZM111.029 9.4C109.369 9.4 107.809 9.92 106.749 10.82L107.389 11.88C108.249 11.12 109.529 10.64 110.889 10.64C112.849 10.64 113.869 11.62 113.869 13.42V14.06H110.529C107.509 14.06 106.469 15.42 106.469 17.04C106.469 18.86 107.929 20.1 110.309 20.1C112.049 20.1 113.289 19.44 113.929 18.36V20H115.289V13.48C115.289 10.76 113.749 9.4 111.029 9.4ZM110.529 18.98C108.849 18.98 107.869 18.22 107.869 17C107.869 15.92 108.529 15.12 110.569 15.12H113.869V16.84C113.309 18.22 112.129 18.98 110.529 18.98ZM120.506 11.54V9.48H119.146V20H120.566V14.64C120.566 12.16 121.906 10.76 124.106 10.76C124.206 10.76 124.326 10.78 124.446 10.78V9.4C122.506 9.4 121.166 10.14 120.506 11.54ZM132.506 18.34C132.106 18.7 131.526 18.88 130.946 18.88C129.766 18.88 129.126 18.2 129.126 16.96V10.68H132.326V9.48H129.126V7.18H127.706V9.48H125.826V10.68H127.706V17.04C127.706 18.98 128.806 20.1 130.786 20.1C131.606 20.1 132.446 19.86 133.006 19.36L132.506 18.34Z" fill="black"/>
<g clip-path="url(#clip0_469_220)">
<g opacity="0.6">
<path d="M12.9998 2.16666C14.7237 2.16666 16.377 2.85148 17.596 4.07046C18.815 5.28945 19.4998 6.94275 19.4998 8.66666V9.74999H23.8332V11.9167H22.5689L21.7488 21.7566C21.7263 22.0273 21.6029 22.2796 21.403 22.4636C21.2032 22.6476 20.9415 22.7498 20.6698 22.75H5.32984C5.05819 22.7498 4.79651 22.6476 4.59666 22.4636C4.39681 22.2796 4.27338 22.0273 4.25084 21.7566L3.42967 11.9167H2.1665V9.74999H6.49984V8.66666C6.49984 6.94275 7.18466 5.28945 8.40364 4.07046C9.62263 2.85148 11.2759 2.16666 12.9998 2.16666ZM20.3947 11.9167H5.60392L6.3265 20.5833H19.6721L20.3947 11.9167ZM14.0832 14.0833V18.4167H11.9165V14.0833H14.0832ZM9.74984 14.0833V18.4167H7.58317V14.0833H9.74984ZM18.4165 14.0833V18.4167H16.2498V14.0833H18.4165ZM12.9998 4.33332C11.8881 4.33332 10.8188 4.76063 10.0133 5.52686C9.20774 6.29309 8.72751 7.33962 8.67192 8.44999L8.6665 8.66666V9.74999H17.3332V8.66666C17.3332 7.55489 16.9059 6.48566 16.1396 5.68011C15.3734 4.87456 14.3269 4.39433 13.2165 4.33874L12.9998 4.33332Z" fill="black"/>
</g>
</g>
<defs>
<clipPath id="clip0_469_220">
<rect width="26" height="26" fill="white"/>
</clipPath>
</defs>
</svg>
