<svg width="44" height="44" viewBox="0 0 44 44" fill="none" xmlns="http://www.w3.org/2000/svg">
<rect x="0.382019" y="0.415771" width="43.5056" height="43.5056" rx="21.7528" fill="#667483"/>
<rect width="29.9101" height="29.9101" transform="translate(7.17963 7.21362)" fill="#667483"/>
<path fill-rule="evenodd" clip-rule="evenodd" d="M26.7957 28.1774H19.9413C19.4253 28.1774 19.0066 27.7601 19.0066 27.2459C19.0066 26.7318 19.4253 26.3145 19.9413 26.3145H26.7957C27.3116 26.3145 27.7304 26.7318 27.7304 27.2459C27.7304 27.7601 27.3116 28.1774 26.7957 28.1774ZM17.7728 19.0975C17.7728 19.4415 17.4924 19.7185 17.1497 19.7185H12.1647C11.8195 19.7185 11.5415 19.4415 11.5415 19.0975V15.9927C11.5415 15.6511 11.8195 15.3717 12.1647 15.3717H17.1497C17.4924 15.3717 17.7728 15.6511 17.7728 15.9927V19.0975ZM16.2025 28.1774H12.4638C11.9478 28.1774 11.5291 27.7601 11.5291 27.2459C11.5291 26.7318 11.9478 26.3145 12.4638 26.3145H16.2025C16.7185 26.3145 17.1372 26.7318 17.1372 27.2459C17.1372 27.7601 16.7185 28.1774 16.2025 28.1774ZM33.9741 12.2668H10.2953C9.26339 12.2668 8.4259 13.1014 8.4259 14.1298V30.275C8.4259 31.3046 9.26339 32.1379 10.2953 32.1379H33.9741C35.0073 32.1379 35.8435 31.3046 35.8435 30.275V14.1298C35.8435 13.1014 35.0073 12.2668 33.9741 12.2668Z" fill="white"/>
</svg>
