<svg width="625" height="97" viewBox="0 0 625 97" fill="none" xmlns="http://www.w3.org/2000/svg">
<path d="M0.0191768 95V0.454543H56.7095V10.6108H11.468V42.5568H52.4624V52.7131H11.468V95H0.0191768ZM99.3658 96.4773C92.5334 96.4773 86.6397 94.9692 81.6847 91.9531C76.7604 88.9062 72.9595 84.6591 70.282 79.2116C67.6352 73.7334 66.3118 67.3627 66.3118 60.0994C66.3118 52.8362 67.6352 46.4347 70.282 40.8949C72.9595 35.3243 76.6835 30.9848 81.4538 27.8764C86.255 24.7372 91.8563 23.1676 98.2578 23.1676C101.951 23.1676 105.598 23.7831 109.199 25.0142C112.8 26.2453 116.077 28.2457 119.032 31.0156C121.987 33.7547 124.341 37.3864 126.095 41.9105C127.849 46.4347 128.727 52.0052 128.727 58.6222V63.2386H74.0675V53.821H117.647C117.647 49.8201 116.847 46.25 115.246 43.1108C113.677 39.9716 111.43 37.4941 108.506 35.6783C105.613 33.8625 102.197 32.9545 98.2578 32.9545C93.9183 32.9545 90.1636 34.0317 86.9936 36.1861C83.8544 38.3097 81.4384 41.0795 79.7457 44.4957C78.053 47.9119 77.2067 51.5743 77.2067 55.483V61.7614C77.2067 67.1165 78.13 71.656 79.9766 75.38C81.8539 79.0732 84.4545 81.8892 87.7784 83.8281C91.1023 85.7363 94.9647 86.6903 99.3658 86.6903C102.228 86.6903 104.813 86.2902 107.121 85.4901C109.46 84.6591 111.476 83.428 113.169 81.7969C114.862 80.1349 116.17 78.0729 117.093 75.6108L127.619 78.5653C126.511 82.1354 124.649 85.2746 122.033 87.983C119.417 90.6605 116.185 92.7533 112.338 94.2614C108.491 95.7386 104.167 96.4773 99.3658 96.4773ZM166.166 96.6619C161.673 96.6619 157.595 95.8156 153.933 94.1229C150.27 92.3994 147.362 89.9219 145.207 86.6903C143.053 83.428 141.976 79.4886 141.976 74.8722C141.976 70.8097 142.776 67.5166 144.376 64.9929C145.977 62.4384 148.116 60.438 150.793 58.9915C153.471 57.545 156.425 56.4678 159.657 55.7599C162.919 55.0213 166.197 54.4366 169.49 54.0057C173.799 53.4517 177.292 53.0362 179.969 52.7592C182.678 52.4515 184.647 51.9437 185.879 51.2358C187.14 50.5279 187.771 49.2969 187.771 47.5426V47.1733C187.771 42.6184 186.525 39.0791 184.032 36.5554C181.57 34.0317 177.83 32.7699 172.814 32.7699C167.613 32.7699 163.535 33.9086 160.58 36.1861C157.626 38.4635 155.548 40.8949 154.348 43.4801L144.007 39.7869C145.854 35.4782 148.316 32.1236 151.393 29.723C154.502 27.2917 157.887 25.599 161.55 24.6449C165.243 23.66 168.875 23.1676 172.445 23.1676C174.722 23.1676 177.338 23.4446 180.293 23.9986C183.278 24.5218 186.156 25.6143 188.925 27.2763C191.726 28.9382 194.05 31.4465 195.896 34.8011C197.743 38.1558 198.666 42.6491 198.666 48.2812V95H187.771V85.3977H187.217C186.479 86.9366 185.248 88.5831 183.524 90.3374C181.801 92.0916 179.508 93.5843 176.646 94.8153C173.783 96.0464 170.29 96.6619 166.166 96.6619ZM167.828 86.875C172.137 86.875 175.768 86.0286 178.723 84.3359C181.708 82.6432 183.955 80.4581 185.463 77.7805C187.002 75.103 187.771 72.2869 187.771 69.3324V59.3608C187.31 59.9148 186.294 60.4226 184.724 60.8842C183.186 61.3151 181.401 61.6998 179.369 62.0383C177.369 62.3461 175.415 62.6231 173.506 62.8693C171.629 63.0848 170.106 63.2694 168.936 63.4233C166.105 63.7926 163.458 64.3928 160.996 65.2237C158.564 66.0239 156.595 67.2396 155.087 68.8707C153.609 70.4711 152.871 72.6562 152.871 75.4261C152.871 79.2116 154.271 82.0739 157.072 84.0128C159.903 85.9209 163.489 86.875 167.828 86.875ZM268.779 39.9716L258.992 42.7415C258.376 41.1103 257.469 39.5253 256.268 37.9865C255.099 36.4169 253.498 35.1243 251.467 34.1087C249.436 33.093 246.835 32.5852 243.665 32.5852C239.326 32.5852 235.71 33.5855 232.817 35.5859C229.954 37.5556 228.523 40.0639 228.523 43.1108C228.523 45.8191 229.508 47.9581 231.478 49.5277C233.448 51.0973 236.525 52.4053 240.711 53.4517L251.236 56.0369C257.576 57.5758 262.3 59.9302 265.409 63.1001C268.517 66.2393 270.072 70.2865 270.072 75.2415C270.072 79.304 268.902 82.9356 266.563 86.1364C264.255 89.3371 261.023 91.8608 256.868 93.7074C252.714 95.554 247.882 96.4773 242.373 96.4773C235.14 96.4773 229.154 94.9077 224.415 91.7685C219.675 88.6293 216.674 84.0436 215.412 78.0114L225.753 75.4261C226.738 79.2424 228.6 82.1046 231.339 84.0128C234.109 85.9209 237.725 86.875 242.188 86.875C247.266 86.875 251.298 85.7978 254.283 83.6435C257.299 81.4583 258.807 78.8423 258.807 75.7955C258.807 73.3333 257.946 71.2713 256.222 69.6094C254.499 67.9167 251.852 66.6548 248.282 65.8239L236.464 63.054C229.97 61.5152 225.199 59.13 222.153 55.8984C219.136 52.6361 217.628 48.5582 217.628 43.6648C217.628 39.6638 218.752 36.1245 220.998 33.0469C223.276 29.9692 226.369 27.5533 230.278 25.799C234.217 24.0447 238.68 23.1676 243.665 23.1676C250.682 23.1676 256.191 24.7064 260.192 27.7841C264.224 30.8617 267.086 34.9242 268.779 39.9716ZM317.31 24.0909V33.3239H280.562V24.0909H317.31ZM291.273 7.10227H302.168V74.6875C302.168 77.7652 302.614 80.0734 303.506 81.6122C304.43 83.1203 305.599 84.1359 307.015 84.6591C308.461 85.1515 309.985 85.3977 311.585 85.3977C312.786 85.3977 313.77 85.3362 314.54 85.2131C315.309 85.0592 315.925 84.9361 316.386 84.8438L318.602 94.6307C317.864 94.9077 316.833 95.1847 315.509 95.4616C314.186 95.7694 312.509 95.9233 310.477 95.9233C307.4 95.9233 304.384 95.2616 301.429 93.9382C298.505 92.6148 296.074 90.599 294.135 87.8906C292.227 85.1823 291.273 81.7661 291.273 77.642V7.10227ZM331.944 95V0.454543H395.651V16.9354H351.933V39.4638H392.374V55.9446H351.933V78.5192H395.836V95H331.944ZM431.394 96.3388C426.87 96.3388 422.838 95.554 419.299 93.9844C415.76 92.384 412.959 90.0296 410.897 86.9212C408.866 83.782 407.85 79.8733 407.85 75.1953C407.85 71.2559 408.574 67.9474 410.02 65.2699C411.467 62.5923 413.436 60.438 415.929 58.8068C418.422 57.1757 421.253 55.9446 424.423 55.1136C427.624 54.2827 430.979 53.6979 434.487 53.3594C438.611 52.9285 441.935 52.5284 444.459 52.1591C446.983 51.759 448.814 51.1742 449.953 50.4048C451.091 49.6354 451.661 48.4967 451.661 46.9886V46.7116C451.661 43.7879 450.737 41.5258 448.891 39.9254C447.075 38.325 444.49 37.5249 441.135 37.5249C437.596 37.5249 434.78 38.3097 432.687 39.8793C430.594 41.4181 429.209 43.357 428.532 45.696L410.343 44.2188C411.267 39.91 413.082 36.1861 415.791 33.0469C418.499 29.8769 421.992 27.4455 426.27 25.7528C430.579 24.0294 435.565 23.1676 441.227 23.1676C445.167 23.1676 448.937 23.6293 452.538 24.5526C456.169 25.4759 459.386 26.907 462.186 28.8459C465.018 30.7848 467.249 33.2777 468.88 36.3246C470.511 39.3407 471.327 42.9569 471.327 47.1733V95H452.676V85.1669H452.122C450.984 87.3828 449.46 89.3371 447.552 91.0298C445.644 92.6918 443.351 93.9998 440.673 94.9538C437.996 95.8771 434.903 96.3388 431.394 96.3388ZM437.026 82.7663C439.919 82.7663 442.474 82.197 444.69 81.0582C446.906 79.8887 448.645 78.3191 449.906 76.3494C451.168 74.3797 451.799 72.1484 451.799 69.6555V62.1307C451.184 62.5308 450.337 62.9001 449.26 63.2386C448.214 63.5464 447.029 63.8388 445.705 64.1158C444.382 64.362 443.059 64.5928 441.735 64.8082C440.412 64.9929 439.212 65.1622 438.134 65.316C435.826 65.6546 433.81 66.1932 432.087 66.9318C430.363 67.6705 429.025 68.6707 428.07 69.9325C427.116 71.1636 426.639 72.7024 426.639 74.549C426.639 77.2266 427.609 79.2732 429.548 80.6889C431.517 82.0739 434.01 82.7663 437.026 82.7663ZM545.583 44.3111L527.579 45.419C527.271 43.8802 526.609 42.4953 525.594 41.2642C524.578 40.0024 523.239 39.0021 521.577 38.2635C519.946 37.4941 517.992 37.1094 515.714 37.1094C512.667 37.1094 510.098 37.7557 508.005 39.0483C505.912 40.3101 504.866 42.0028 504.866 44.1264C504.866 45.8191 505.543 47.2502 506.897 48.4197C508.251 49.5893 510.575 50.5279 513.868 51.2358L526.702 53.821C533.595 55.2367 538.735 57.5142 542.121 60.6534C545.506 63.7926 547.199 67.9167 547.199 73.0256C547.199 77.6728 545.829 81.7507 543.09 85.2592C540.382 88.7678 536.658 91.5069 531.918 93.4766C527.209 95.4155 521.777 96.3849 515.622 96.3849C506.235 96.3849 498.756 94.4306 493.186 90.522C487.646 86.5826 484.399 81.2275 483.445 74.4567L502.788 73.441C503.373 76.3033 504.789 78.4884 507.035 79.9964C509.282 81.4737 512.16 82.2124 515.668 82.2124C519.115 82.2124 521.885 81.5507 523.978 80.2273C526.101 78.8731 527.179 77.1342 527.209 75.0107C527.179 73.2256 526.425 71.7637 524.947 70.625C523.47 69.4555 521.193 68.563 518.115 67.9474L505.835 65.5007C498.91 64.1158 493.755 61.7152 490.37 58.299C487.015 54.8828 485.338 50.5279 485.338 45.2344C485.338 40.6794 486.569 36.7554 489.031 33.4624C491.524 30.1693 495.017 27.6302 499.51 25.8452C504.035 24.0601 509.328 23.1676 515.391 23.1676C524.347 23.1676 531.395 25.0604 536.535 28.8459C541.705 32.6314 544.721 37.7865 545.583 44.3111ZM591.898 96.3849C584.604 96.3849 578.325 94.9077 573.062 91.9531C567.83 88.9678 563.799 84.7514 560.967 79.304C558.136 73.8258 556.72 67.3473 556.72 59.8686C556.72 52.5746 558.136 46.1731 560.967 40.6641C563.799 35.1551 567.784 30.8617 572.924 27.7841C578.094 24.7064 584.157 23.1676 591.113 23.1676C595.791 23.1676 600.146 23.9216 604.178 25.4297C608.24 26.907 611.779 29.1383 614.795 32.1236C617.842 35.1089 620.212 38.8636 621.905 43.3878C623.598 47.8812 624.444 53.1439 624.444 59.1761V64.5774H564.568V52.3899H605.932C605.932 49.5585 605.316 47.0502 604.085 44.8651C602.854 42.6799 601.146 40.9718 598.961 39.7408C596.807 38.4789 594.298 37.848 591.436 37.848C588.451 37.848 585.804 38.5405 583.496 39.9254C581.218 41.2796 579.433 43.1108 578.141 45.419C576.848 47.6965 576.186 50.2356 576.156 53.0362V64.6236C576.156 68.1321 576.802 71.1636 578.094 73.718C579.418 76.2725 581.28 78.2422 583.68 79.6271C586.081 81.0121 588.928 81.7045 592.221 81.7045C594.406 81.7045 596.406 81.3968 598.222 80.7812C600.038 80.1657 601.592 79.2424 602.885 78.0114C604.178 76.7803 605.162 75.2723 605.839 73.4872L624.028 74.6875C623.105 79.0578 621.212 82.8741 618.35 86.1364C615.519 89.3679 611.856 91.8916 607.363 93.7074C602.9 95.4924 597.745 96.3849 591.898 96.3849Z" fill="#44B250"/>
</svg>
