<svg width="2269" height="278" viewBox="0 0 2269 278" fill="none" xmlns="http://www.w3.org/2000/svg">
<path fill-rule="evenodd" clip-rule="evenodd" d="M2761 123.6L2668.97 148.32C2576.93 173.04 2392.87 222.48 2208.8 210.12C2024.73 197.76 1840.67 123.6 1656.6 74.16C1472.53 24.72 1288.47 0 1104.4 0C920.333 0 736.267 24.72 552.2 67.98C368.134 111.24 184.067 173.04 92.0334 203.94L0.000244141 234.84V309H92.0334C184.067 309 368.134 309 552.2 309C736.267 309 920.333 309 1104.4 309C1288.47 309 1472.53 309 1656.6 309C1840.67 309 2024.73 309 2208.8 309C2392.87 309 2576.93 309 2668.97 309H2761V123.6Z" fill="#406D59"/>
</svg>
